<svg width="317" height="310" fill="none" xmlns="http://www.w3.org/2000/svg"><path d="M2.063 164.021L79.52 86.563a7.04 7.04 0 019.957 0l28.167 28.167a7.038 7.038 0 010 9.957l-77.458 77.458a7.016 7.016 0 01-4.979 2.063 7.016 7.016 0 01-4.979-2.063L2.063 173.979a7.04 7.04 0 010-9.958z" fill="#F5F4F4"/><path d="M37.271 44.313l42.25-42.25a7.04 7.04 0 019.957 0L202.145 114.73a7.038 7.038 0 010 9.957l-42.25 42.25a7.02 7.02 0 01-4.979 2.063 7.02 7.02 0 01-4.978-2.063L37.271 54.27a7.04 7.04 0 010-9.957z" fill="#F0F0F0"/><path d="M126.75 253.5h154.916a7.04 7.04 0 017.042 7.042v42.25a7.04 7.04 0 01-7.042 7.041H126.75a7.04 7.04 0 01-7.042-7.041v-42.25a7.04 7.04 0 017.042-7.042z" fill="#F5F4F4"/><path d="M98.583 309.833h211.25a7.04 7.04 0 007.042-7.041 7.04 7.04 0 00-7.042-7.042H98.583a7.04 7.04 0 00-7.041 7.042 7.04 7.04 0 007.041 7.041z" fill="#F0F0F0"/></svg>