<svg width="305" height="305" fill="none" xmlns="http://www.w3.org/2000/svg"><circle cx="152.5" cy="152.5" r="142.5" stroke="#F5F4F4" stroke-width="20"/><path d="M155.254 204.595c-10.924 0-20.3-2.175-28.13-6.525-7.83-4.35-13.872-10.44-18.125-18.27-4.157-7.927-6.235-17.255-6.235-27.985 0-10.633 2.078-19.865 6.235-27.695 4.253-7.927 10.295-14.065 18.125-18.415s17.206-6.525 28.13-6.525c14.306 0 25.665 3.867 34.075 11.6l-7.105 17.835c-4.447-3.48-8.652-5.945-12.615-7.395-3.964-1.45-8.507-2.175-13.63-2.175-9.57 0-16.917 2.852-22.04 8.555-5.027 5.607-7.54 13.678-7.54 24.215 0 10.537 2.513 18.657 7.54 24.36 5.123 5.703 12.47 8.555 22.04 8.555 5.123 0 9.666-.725 13.63-2.175 3.963-1.45 8.168-3.915 12.615-7.395l7.105 17.835c-4.06 3.673-8.99 6.525-14.79 8.555-5.8 2.03-12.229 3.045-19.285 3.045z" fill="#F5F4F4"/></svg>