<svg width="371" height="333" fill="none" xmlns="http://www.w3.org/2000/svg"><g clip-path="url(#clip0_652_15887)"><path d="M.438 232.168V8.054c0-3.979 3.4-7.233 7.549-7.233h355.019c4.148 0 7.549 3.254 7.549 7.233V232.16H.437v.008z" fill="#F5F4F4"/><path d="M81.368 22.494h25.394l17.179 17.41 17.925 18.168 59.645 59.5h-59.98c-.574 0-1.206 0-1.838.058-15.455.932-27.702 14.801-27.99 30.64-.287 16.886 13.846 30.745 30.507 30.745h94.394l17.925 18.167H142.44c-26.083 0-47.972-20.788-48.604-47.224-.288-11.879 3.677-22.826 10.398-31.385 8.733-11.064 22.234-18.226 37.287-18.226h16.776L81.369 22.494z" fill="#EBEBEB"/><path d="M288.631 209.567h-25.393l-17.179-17.411-17.925-18.167-59.645-59.5h59.98c.574 0 1.206 0 1.838-.058 15.455-.932 27.702-14.802 27.99-30.64.287-16.887-13.846-30.745-30.507-30.745h-94.394l-17.925-18.168H227.56c26.083 0 47.972 20.788 48.604 47.224.288 11.88-3.677 22.826-10.398 31.386-8.733 11.064-22.234 18.226-37.287 18.226h-16.776l76.928 77.853z" fill="#EBEBEB"/><path d="M370.562 232.168v30.845c0 4.241-3.4 7.711-7.549 7.711H7.987c-4.149 0-7.55-3.47-7.55-7.711v-30.845h370.125z" fill="#E7E7E7"/><path d="M131.523 324.703h107.954l-7.711-53.979h-92.532l-7.711 53.979z" fill="#F5F4F4"/><path d="M231.766 270.724h-92.531l-4.804 33.645 99.131-21.068-1.796-12.577z" fill="#939393" fill-opacity=".08"/><path d="M266.465 324.703h-161.93v7.712h161.93v-7.712z" fill="#E7E7E7"/><path d="M139.234 270.724h92.531l.525 3.648-95.454 13.171 2.398-16.819z" fill="#939393" fill-opacity=".11"/></g><defs><clipPath id="clip0_652_15887"><path fill="#fff" transform="translate(0 .242)" d="M0 0h371v332.516H0z"/></clipPath></defs></svg>