<svg width="353" height="318" fill="none" xmlns="http://www.w3.org/2000/svg"><path d="M0 0h43.188l29.215 29.523L102.89 60.33l101.44 100.891H102.32c-.977 0-2.052 0-3.126.099-26.285 1.58-47.114 25.098-47.603 51.955-.489 28.634 23.548 52.134 51.884 52.134h160.538l30.486 30.807H103.866c-44.36 0-81.588-35.25-82.663-80.077-.488-20.143 6.254-38.706 17.686-53.221 14.852-18.76 37.814-30.905 63.414-30.905h28.531L0 0z" fill="#F5F4F4"/><path d="M352.499 317.217h-43.188l-29.215-29.523-30.486-30.807-101.441-100.892h102.01c.977 0 2.052 0 3.127-.099 26.284-1.58 47.113-25.098 47.602-51.955.488-28.635-23.548-52.134-51.884-52.134H88.486L58 21h190.633c44.36 0 81.588 35.25 82.663 80.077.488 20.143-6.254 38.706-17.686 53.221-14.852 18.76-37.814 30.905-63.414 30.905h-28.531l130.834 132.014z" fill="#F5F4F4"/></svg>