<svg width="20" height="20" fill="none" xmlns="http://www.w3.org/2000/svg"><path d="M4.167 5.833a1.667 1.667 0 100-3.333 1.667 1.667 0 000 3.333zm11.667 0a1.667 1.667 0 100-3.333 1.667 1.667 0 000 3.333zM4.167 17.5a1.667 1.667 0 100-3.333 1.667 1.667 0 000 3.333zm11.667 0a1.667 1.667 0 100-3.333 1.667 1.667 0 000 3.333zM4.167 5.833v8.334m1.666-10h8.333M5.833 15.833h8.333m1.667-10v8.334m-7.5-5.834h3.333M10 11.667V8.333" stroke="#6D6864" stroke-width="1.25" stroke-linecap="round" stroke-linejoin="round"/></svg>