<svg width="20" height="20" fill="none" xmlns="http://www.w3.org/2000/svg"><path d="M6.666 3.333H5c-.92 0-1.667.746-1.667 1.667v.833c0 .92.746 1.667 1.667 1.667h1.666c.92 0 1.667-.746 1.667-1.667V5c0-.92-.746-1.667-1.667-1.667zm0 7.5H5c-.92 0-1.667.747-1.667 1.667V15c0 .92.746 1.667 1.667 1.667h1.666c.92 0 1.667-.747 1.667-1.667v-2.5c0-.92-.746-1.667-1.667-1.667zM15 3.333h-1.666c-.92 0-1.667.746-1.667 1.667v2.5c0 .92.746 1.667 1.667 1.667H15c.92 0 1.667-.747 1.667-1.667V5c0-.92-.746-1.667-1.667-1.667zm0 9.167h-1.666c-.92 0-1.667.746-1.667 1.667V15c0 .92.746 1.667 1.667 1.667H15c.92 0 1.667-.747 1.667-1.667v-.833c0-.92-.746-1.667-1.667-1.667z" stroke="#6D6864" stroke-width="1.25" stroke-linecap="round" stroke-linejoin="round"/></svg>