<svg width="20" height="20" fill="none" xmlns="http://www.w3.org/2000/svg"><path d="M12.5 6.667h.008m1.658-3.334H5.833a2.5 2.5 0 00-2.5 2.5v8.334a2.5 2.5 0 002.5 2.5h8.333a2.5 2.5 0 002.5-2.5V5.833a2.5 2.5 0 00-2.5-2.5z" stroke="#6D6864" stroke-width="1.25" stroke-linecap="round" stroke-linejoin="round"/><path d="M3.333 12.5l3.333-3.333c.38-.366.811-.559 1.25-.559.44 0 .87.193 1.25.559l4.167 4.166m-1.666-1.666l.833-.834c.38-.365.812-.558 1.25-.558.44 0 .87.193 1.25.558l1.667 1.667" stroke="#6D6864" stroke-width="1.25" stroke-linecap="round" stroke-linejoin="round"/></svg>