<svg width="61" height="54" fill="none" xmlns="http://www.w3.org/2000/svg"><path d="M55.95 49.107H17.28c-7.373 0-13.56-5.842-13.74-13.27a13.65 13.65 0 012.94-8.82c2.469-3.11 6.285-5.122 10.54-5.122h4.742L0 0h7.195l4.856 4.893 5.067 5.105L33.992 27H17.037c-.163 0-.342 0-.52.016-4.369.262-7.844 3.895-7.926 8.346-.08 4.745 3.914 8.64 8.624 8.64h33.667l5.067 5.105z" fill="url(#paint0_linear_965_550)"/><path d="M61 54h-7.178l-4.856-4.893-5.067-5.105-16.874-16.986H43.98c.162 0 .341 0 .52-.016 4.368-.262 7.844-3.895 7.925-8.345.081-4.746-3.914-8.64-8.624-8.64H17.118L12.05 4.909h31.685c7.374 0 13.561 5.842 13.74 13.271a13.651 13.651 0 01-2.94 8.82c-2.468 3.11-6.285 5.122-10.54 5.122h-4.742L61 54z" fill="#FCF4ED"/><defs><linearGradient id="paint0_linear_965_550" x1="0" y1="0" x2="57.933" y2="2.464" gradientUnits="userSpaceOnUse"><stop stop-color="#D1B180"/><stop offset="1" stop-color="#B8996A"/></linearGradient></defs></svg>