<svg width="63" height="56" fill="none" xmlns="http://www.w3.org/2000/svg"><path d="M62.9 55.45h-7.42l-5.015-5.016-5.253-5.237-17.48-17.48h17.56c.175 0 .365-.016.54-.016 4.522-.27 8.12-3.996 8.2-8.565.079-4.888-4.044-8.883-8.932-8.883H17.687l-5.254-5.238h32.589c7.625 0 14.041 6.002 14.232 13.627a13.95 13.95 0 01-3.056 9.059 13.976 13.976 0 01-10.922 5.253h-4.903L62.9 55.45z" fill="#382B23"/><path d="M50.466 50.434H17.878c-7.626 0-14.041-6.001-14.232-13.627a13.95 13.95 0 013.056-9.059 13.976 13.976 0 0110.921-5.253h4.904L0 0h7.419l5.015 5.015 5.253 5.237 17.48 17.465h-17.56c-.175 0-.366.016-.54.016-4.522.27-8.12 3.995-8.2 8.565-.08 4.887 4.044 8.883 8.932 8.883h27.414l5.253 5.254z" fill="#B8996A"/></svg>