<svg width="528" height="333" viewBox="0 0 528 333" fill="none" xmlns="http://www.w3.org/2000/svg">
<path d="M267.764 16.0034H253.333V301.737H267.764V16.0034Z" fill="#EFEEEE"/>
<path d="M329.255 332.703H192.596V327.905C192.596 311.879 210.415 298.886 232.401 298.886H289.436C311.397 298.886 329.248 311.879 329.248 327.905L329.255 332.703Z" fill="#EBE9E9"/>
<path d="M339.332 332.704H182.507V331.341C182.504 329.928 182.78 328.528 183.319 327.222C183.858 325.916 184.649 324.729 185.647 323.729C186.645 322.729 187.83 321.936 189.134 321.395C190.439 320.854 191.837 320.576 193.249 320.577H328.628C330.038 320.577 331.435 320.855 332.737 321.396C334.04 321.936 335.224 322.728 336.221 323.726C337.218 324.725 338.009 325.91 338.548 327.214C339.087 328.519 339.364 329.917 339.363 331.328L339.332 332.704Z" fill="#F5F4F4"/>
<path d="M430.902 22.2015L94.7823 22.6159C90.6286 22.6159 87.2529 20.2359 87.2529 17.2906V17.1776C87.2529 14.2323 90.6098 11.8397 94.7823 11.8334L430.902 11.4189C435.055 11.4189 438.431 13.799 438.431 16.7505V16.8573C438.393 19.8025 435.03 22.1952 430.902 22.2015Z" fill="#EFEEEE"/>
<path d="M92.197 17.3288C111.113 59.1527 130.026 100.977 148.937 142.8L164.084 176.297C165.339 179.01 161.537 181.145 160.319 178.445C141.404 136.621 122.49 94.7972 103.579 52.9733L88.4323 19.4765C87.1774 16.7636 90.9798 14.6284 92.197 17.3288Z" fill="#D1D1D1"/>
<path d="M92.3038 17.3281L35.1054 142.593L19.8395 176.033C18.5846 178.746 22.3493 180.893 23.6042 178.193L80.7838 52.9287L96.0497 19.4947C97.3046 16.7818 93.5399 14.6341 92.285 17.3281H92.3038Z" fill="#D1D1D1"/>
<path d="M90.1268 21.247C90.0473 68.233 89.9616 115.215 89.8696 162.192V174.928C89.8472 175.216 89.8847 175.506 89.9795 175.779C90.0744 176.052 90.2247 176.302 90.4209 176.515C90.6171 176.727 90.855 176.896 91.1197 177.012C91.3844 177.128 91.6701 177.188 91.959 177.188C92.2478 177.188 92.5336 177.128 92.7983 177.012C93.063 176.896 93.3009 176.727 93.4971 176.515C93.6933 176.302 93.8435 176.052 93.9384 175.779C94.0333 175.506 94.0707 175.216 94.0484 174.928L94.3056 33.9826C94.3056 29.7374 94.3056 25.4943 94.3056 21.2533C94.3333 20.9616 94.2998 20.6673 94.2072 20.3893C94.1146 20.1113 93.9651 19.8557 93.7681 19.6389C93.571 19.4221 93.331 19.2489 93.0632 19.1304C92.7954 19.0119 92.5059 18.9507 92.2131 18.9507C91.9203 18.9507 91.6307 19.0119 91.363 19.1304C91.0952 19.2489 90.8551 19.4221 90.6581 19.6389C90.4611 19.8557 90.3115 20.1113 90.219 20.3893C90.1264 20.6673 90.0929 20.9616 90.1205 21.2533L90.1268 21.247Z" fill="#D1D1D1"/>
<path d="M433.211 17.3288C452.13 59.1527 471.044 100.977 489.951 142.8L505.098 176.297C506.353 179.01 502.55 181.145 501.333 178.445C482.418 136.621 463.504 94.7972 444.593 52.9733L429.446 19.4765C428.191 16.7636 431.993 14.6284 433.211 17.3288Z" fill="#D1D1D1"/>
<path d="M433.317 17.3286L376.119 142.593L360.853 176.033C359.598 178.746 363.363 180.894 364.618 178.194C383.68 136.437 402.746 94.6819 421.816 52.9292L437.082 19.4952C438.337 16.7823 434.572 14.6346 433.317 17.3286Z" fill="#D1D1D1"/>
<path d="M431.14 21.247C431.056 68.233 430.97 115.215 430.882 162.192V174.928C430.86 175.216 430.897 175.506 430.992 175.779C431.087 176.052 431.237 176.302 431.434 176.515C431.63 176.727 431.868 176.896 432.132 177.012C432.397 177.128 432.683 177.188 432.972 177.188C433.261 177.188 433.546 177.128 433.811 177.012C434.076 176.896 434.314 176.727 434.51 176.515C434.706 176.302 434.856 176.052 434.951 175.779C435.046 175.506 435.083 175.216 435.061 174.928C435.149 127.946 435.235 80.9643 435.318 33.9826C435.318 29.7374 435.318 25.4943 435.318 21.2533C435.346 20.9616 435.312 20.6673 435.22 20.3893C435.127 20.1113 434.978 19.8557 434.781 19.6389C434.584 19.4221 434.344 19.2489 434.076 19.1304C433.808 19.0119 433.519 18.9507 433.226 18.9507C432.933 18.9507 432.643 19.0119 432.376 19.1304C432.108 19.2489 431.868 19.4221 431.671 19.6389C431.474 19.8557 431.324 20.1113 431.232 20.3893C431.139 20.6673 431.106 20.9616 431.133 21.2533L431.14 21.247Z" fill="#D1D1D1"/>
<path d="M426.962 11.3371C432.481 12.9022 426.724 14.5048 410.516 15.9153C394.308 17.3258 368.481 18.4716 336.74 19.1884C304.999 19.9052 268.973 20.1562 233.829 19.9054C198.685 19.6547 166.227 18.915 141.11 17.7925C115.994 16.67 99.5082 15.2223 94.0174 13.657C88.5266 12.0917 94.3119 10.4892 110.545 9.07937C126.779 7.66948 152.626 6.52459 184.38 5.80891C216.134 5.09323 252.165 4.84349 287.304 5.09551C322.387 5.34843 354.779 6.08807 379.858 7.2089C404.938 8.32974 421.422 9.77452 426.962 11.3371Z" fill="#EFEEEE"/>
<path d="M293.595 8.44943C294.692 10.5362 293.548 12.6731 290.325 14.5537C287.103 16.4343 281.968 17.9621 275.658 18.9178C269.347 19.8736 262.185 20.2083 255.197 19.8739C248.21 19.5396 241.757 18.5534 236.764 17.0567C231.77 15.56 228.493 13.6297 227.401 11.5427C226.309 9.45561 227.46 7.319 230.687 5.43915C233.915 3.55931 239.053 2.03279 245.366 1.07855C251.68 0.124303 258.843 -0.208674 265.829 0.127349C272.804 0.464569 279.244 1.45076 284.23 2.9452C289.216 4.43965 292.493 6.36602 293.595 8.44943Z" fill="#EFEEEE"/>
<path d="M351.529 179.016H521.65L521.506 179.537C517.164 194.848 506.823 204.82 495.366 204.732L377.267 203.84C366.086 203.771 356.009 194.1 351.605 179.28L351.529 179.016Z" fill="#F5F4F4"/>
<path d="M523.802 183.136H349.371C347.445 183.136 345.876 181.308 345.876 179.06V178.978C345.876 176.724 347.445 174.896 349.371 174.896H523.802C525.735 174.896 527.297 176.724 527.297 178.978V179.06C527.297 181.308 525.735 183.136 523.802 183.136Z" fill="#EBEBEB"/>
<path d="M6.34961 178.313H176.47L176.32 178.828C171.984 194.145 161.637 204.111 150.186 204.029L32.0877 203.144C20.9065 203.062 10.8233 193.41 6.42491 178.57L6.34961 178.313Z" fill="#F5F4F4"/>
<path d="M178.623 182.42H4.19119C2.25864 182.42 0.696289 180.599 0.696289 178.344V178.263C0.696289 176.014 2.25864 174.187 4.19119 174.187H178.623C180.549 174.187 182.117 176.014 182.117 178.263V178.344C182.117 180.605 180.549 182.42 178.623 182.42Z" fill="#EBEBEB"/>
<g style="mix-blend-mode:multiply" opacity="0.03">
<path d="M175.052 182.552C175.052 182.552 169.142 200.55 153.248 203.903L51.4443 203.143C51.4443 203.143 130.083 201.887 144.307 195.608C158.531 189.328 167.523 182.841 167.523 182.841L175.052 182.552Z" fill="#272525"/>
</g>
<g style="mix-blend-mode:multiply" opacity="0.03">
<path d="M520.565 183.387C520.565 183.387 514.661 201.391 498.761 204.738L396.957 204.004C396.957 204.004 475.602 202.748 489.82 196.468C504.038 190.188 513.035 183.701 513.035 183.701L520.565 183.387Z" fill="#272525"/>
</g>
<path d="M102.884 17.9845C102.895 12.0815 98.1368 7.287 92.2558 7.2757C86.3749 7.2644 81.5982 12.0405 81.5869 17.9435C81.5756 23.8465 86.3339 28.641 92.2148 28.6523C98.0958 28.6636 102.872 23.8874 102.884 17.9845Z" fill="#EFEEEE"/>
<path d="M444.155 17.9413C444.165 12.0383 439.265 7.24443 433.21 7.23385C427.155 7.22328 422.238 12 422.228 17.903C422.217 23.806 427.118 28.5999 433.173 28.6105C439.228 28.621 444.145 23.8443 444.155 17.9413Z" fill="#EFEEEE"/>
</svg>
