<svg width="20" height="20" viewBox="0 0 20 20" fill="none" xmlns="http://www.w3.org/2000/svg">
<path d="M6.66634 3.33325H4.99967C4.0792 3.33325 3.33301 4.07944 3.33301 4.99992V5.83325C3.33301 6.75373 4.0792 7.49992 4.99967 7.49992H6.66634C7.58682 7.49992 8.33301 6.75373 8.33301 5.83325V4.99992C8.33301 4.07944 7.58682 3.33325 6.66634 3.33325Z" stroke="#6D6864" stroke-width="1.25" stroke-linecap="round" stroke-linejoin="round"/>
<path d="M6.66634 10.8334H4.99967C4.0792 10.8334 3.33301 11.5796 3.33301 12.5V15C3.33301 15.9205 4.0792 16.6667 4.99967 16.6667H6.66634C7.58682 16.6667 8.33301 15.9205 8.33301 15V12.5C8.33301 11.5796 7.58682 10.8334 6.66634 10.8334Z" stroke="#6D6864" stroke-width="1.25" stroke-linecap="round" stroke-linejoin="round"/>
<path d="M15.0003 3.33325H13.3337C12.4132 3.33325 11.667 4.07944 11.667 4.99992V7.49992C11.667 8.42039 12.4132 9.16658 13.3337 9.16658H15.0003C15.9208 9.16658 16.667 8.42039 16.667 7.49992V4.99992C16.667 4.07944 15.9208 3.33325 15.0003 3.33325Z" stroke="#6D6864" stroke-width="1.25" stroke-linecap="round" stroke-linejoin="round"/>
<path d="M15.0003 12.5H13.3337C12.4132 12.5 11.667 13.2462 11.667 14.1667V15C11.667 15.9205 12.4132 16.6667 13.3337 16.6667H15.0003C15.9208 16.6667 16.667 15.9205 16.667 15V14.1667C16.667 13.2462 15.9208 12.5 15.0003 12.5Z" stroke="#6D6864" stroke-width="1.25" stroke-linecap="round" stroke-linejoin="round"/>
</svg>
