<svg width="20" height="20" viewBox="0 0 20 20" fill="none" xmlns="http://www.w3.org/2000/svg">
<path d="M4.16667 5.83333C5.08714 5.83333 5.83333 5.08714 5.83333 4.16667C5.83333 3.24619 5.08714 2.5 4.16667 2.5C3.24619 2.5 2.5 3.24619 2.5 4.16667C2.5 5.08714 3.24619 5.83333 4.16667 5.83333Z" stroke="#6D6864" stroke-width="1.25" stroke-linecap="round" stroke-linejoin="round"/>
<path d="M15.8337 5.83333C16.7541 5.83333 17.5003 5.08714 17.5003 4.16667C17.5003 3.24619 16.7541 2.5 15.8337 2.5C14.9132 2.5 14.167 3.24619 14.167 4.16667C14.167 5.08714 14.9132 5.83333 15.8337 5.83333Z" stroke="#6D6864" stroke-width="1.25" stroke-linecap="round" stroke-linejoin="round"/>
<path d="M4.16667 17.5C5.08714 17.5 5.83333 16.7538 5.83333 15.8333C5.83333 14.9128 5.08714 14.1666 4.16667 14.1666C3.24619 14.1666 2.5 14.9128 2.5 15.8333C2.5 16.7538 3.24619 17.5 4.16667 17.5Z" stroke="#6D6864" stroke-width="1.25" stroke-linecap="round" stroke-linejoin="round"/>
<path d="M15.8337 17.5001C16.7541 17.5001 17.5003 16.7539 17.5003 15.8334C17.5003 14.9129 16.7541 14.1667 15.8337 14.1667C14.9132 14.1667 14.167 14.9129 14.167 15.8334C14.167 16.7539 14.9132 17.5001 15.8337 17.5001Z" stroke="#6D6864" stroke-width="1.25" stroke-linecap="round" stroke-linejoin="round"/>
<path d="M4.16699 5.83325V14.1666" stroke="#6D6864" stroke-width="1.25" stroke-linecap="round" stroke-linejoin="round"/>
<path d="M5.83301 4.16675H14.1663" stroke="#6D6864" stroke-width="1.25" stroke-linecap="round" stroke-linejoin="round"/>
<path d="M5.83301 15.8333H14.1663" stroke="#6D6864" stroke-width="1.25" stroke-linecap="round" stroke-linejoin="round"/>
<path d="M15.833 5.83325V14.1666" stroke="#6D6864" stroke-width="1.25" stroke-linecap="round" stroke-linejoin="round"/>
<path d="M8.33301 8.33325H11.6663" stroke="#6D6864" stroke-width="1.25" stroke-linecap="round" stroke-linejoin="round"/>
<path d="M10 11.6667V8.33337" stroke="#6D6864" stroke-width="1.25" stroke-linecap="round" stroke-linejoin="round"/>
</svg>
