<svg width="317" height="310" viewBox="0 0 317 310" fill="none" xmlns="http://www.w3.org/2000/svg">
<path d="M2.06271 164.021L79.521 86.563C82.2717 83.8123 86.7278 83.8123 89.4784 86.563L117.645 114.73C120.396 117.48 120.396 121.936 117.645 124.687L40.1867 202.145C38.8114 203.521 37.0097 204.208 35.2081 204.208C33.4064 204.208 31.6047 203.521 30.2294 202.145L2.06271 173.979C-0.687981 171.228 -0.687981 166.772 2.06271 164.021Z" fill="#F5F4F4"/>
<path d="M37.271 44.313L79.521 2.06296C82.2717 -0.687654 86.7278 -0.687654 89.4784 2.06296L202.145 114.73C204.896 117.48 204.896 121.936 202.145 124.687L159.895 166.937C158.52 168.312 156.718 169 154.916 169C153.115 169 151.313 168.312 149.938 166.937L37.271 54.2703C34.5204 51.5197 34.5204 47.0636 37.271 44.313Z" fill="#F0F0F0"/>
<path d="M126.75 253.5H281.666C285.555 253.5 288.708 256.65 288.708 260.542V302.792C288.708 306.684 285.555 309.833 281.666 309.833H126.75C122.861 309.833 119.708 306.684 119.708 302.792V260.542C119.708 256.65 122.861 253.5 126.75 253.5Z" fill="#F5F4F4"/>
<path d="M98.5833 309.833H309.833C313.722 309.833 316.875 306.684 316.875 302.792C316.875 298.9 313.722 295.75 309.833 295.75H98.5833C94.6946 295.75 91.5417 298.9 91.5417 302.792C91.5417 306.684 94.6946 309.833 98.5833 309.833Z" fill="#F0F0F0"/>
</svg>
