<svg width="305" height="305" viewBox="0 0 305 305" fill="none" xmlns="http://www.w3.org/2000/svg">
<circle cx="152.5" cy="152.5" r="142.5" stroke="#F5F4F4" stroke-width="20"/>
<path d="M155.254 204.595C144.33 204.595 134.954 202.42 127.124 198.07C119.294 193.72 113.252 187.63 108.999 179.8C104.842 171.873 102.764 162.545 102.764 151.815C102.764 141.182 104.842 131.95 108.999 124.12C113.252 116.193 119.294 110.055 127.124 105.705C134.954 101.355 144.33 99.18 155.254 99.18C169.56 99.18 180.919 103.047 189.329 110.78L182.224 128.615C177.777 125.135 173.572 122.67 169.609 121.22C165.645 119.77 161.102 119.045 155.979 119.045C146.409 119.045 139.062 121.897 133.939 127.6C128.912 133.207 126.399 141.278 126.399 151.815C126.399 162.352 128.912 170.472 133.939 176.175C139.062 181.878 146.409 184.73 155.979 184.73C161.102 184.73 165.645 184.005 169.609 182.555C173.572 181.105 177.777 178.64 182.224 175.16L189.329 192.995C185.269 196.668 180.339 199.52 174.539 201.55C168.739 203.58 162.31 204.595 155.254 204.595Z" fill="#F5F4F4"/>
</svg>
