<svg width="371" height="333" viewBox="0 0 371 333" fill="none" xmlns="http://www.w3.org/2000/svg">
<g clip-path="url(#clip0_652_15887)">
<path d="M0.4375 232.168V8.05439C0.4375 4.07536 3.83802 0.821198 7.98651 0.821198H363.006C367.154 0.821198 370.555 4.07536 370.555 8.05439V232.16H0.4375V232.168Z" fill="#F5F4F4"/>
<path d="M81.3685 22.4938H106.762L123.941 39.9044L141.866 58.0721L201.511 117.572H141.531C140.957 117.572 140.325 117.572 139.693 117.63C124.238 118.562 111.991 132.431 111.703 148.27C111.416 165.156 125.549 179.015 142.21 179.015H236.604L254.529 197.182H142.44C116.357 197.182 94.4676 176.394 93.8356 149.958C93.5484 138.079 97.5126 127.132 104.234 118.573C112.967 107.509 126.468 100.347 141.521 100.347H158.297L81.3685 22.4938Z" fill="#EBEBEB"/>
<path d="M288.631 209.567H263.238L246.059 192.156L228.134 173.989L168.489 114.489H228.469C229.043 114.489 229.675 114.489 230.307 114.431C245.762 113.499 258.009 99.6294 258.297 83.791C258.584 66.9044 244.451 53.0458 227.79 53.0458H133.396L115.471 34.8782H227.56C253.643 34.8782 275.532 55.6661 276.164 82.1023C276.452 93.9812 272.487 104.928 265.766 113.488C257.033 124.552 243.532 131.714 228.479 131.714H211.703L288.631 209.567Z" fill="#EBEBEB"/>
<path d="M370.562 232.168V263.013C370.562 267.254 367.162 270.724 363.013 270.724H7.98651C3.83802 270.724 0.4375 267.254 0.4375 263.013V232.168H370.562Z" fill="#E7E7E7"/>
<path d="M131.523 324.703H239.477L231.766 270.724H139.234L131.523 324.703Z" fill="#F5F4F4"/>
<path d="M231.766 270.724H139.235L134.431 304.369L233.562 283.301L231.766 270.724Z" fill="#939393" fill-opacity="0.08"/>
<path d="M266.465 324.703H104.535V332.415H266.465V324.703Z" fill="#E7E7E7"/>
<path d="M139.234 270.724H231.765L232.29 274.372L136.836 287.543L139.234 270.724Z" fill="#939393" fill-opacity="0.11"/>
</g>
<defs>
<clipPath id="clip0_652_15887">
<rect width="371" height="332.516" fill="white" transform="translate(0 0.242249)"/>
</clipPath>
</defs>
</svg>
