<svg width="353" height="318" viewBox="0 0 353 318" fill="none" xmlns="http://www.w3.org/2000/svg">
<path d="M6.10352e-05 -3.05176e-05H43.188L72.4034 29.5229L102.889 60.3295L204.33 161.222H102.32C101.343 161.222 100.268 161.222 99.1935 161.321C72.9094 162.901 52.0796 186.419 51.5911 213.276C51.1025 241.91 75.1393 265.41 103.475 265.41H264.013L294.499 296.217H103.866C59.5056 296.217 22.278 260.967 21.2032 216.14C20.7146 195.997 27.4566 177.434 38.8887 162.919C53.7407 144.159 76.7027 132.014 102.303 132.014H130.834L6.10352e-05 -3.05176e-05Z" fill="#F5F4F4"/>
<path d="M352.499 317.217H309.311L280.096 287.694L249.61 256.887L148.169 155.995H250.179C251.156 155.995 252.231 155.995 253.306 155.896C279.59 154.316 300.419 130.798 300.908 103.941C301.396 75.3065 277.36 51.8066 249.024 51.8066H88.4856L58 21H248.633C292.993 21 330.221 56.2499 331.296 101.077C331.784 121.22 325.042 139.783 313.61 154.298C298.758 173.058 275.796 185.203 250.196 185.203H221.665L352.499 317.217Z" fill="#F5F4F4"/>
</svg>
