<svg width="528" height="333" fill="none" xmlns="http://www.w3.org/2000/svg"><path d="M267.764 16.003h-14.431v285.734h14.431V16.003z" fill="#EFEEEE"/><path d="M329.255 332.703H192.596v-4.798c0-16.026 17.819-29.019 39.805-29.019h57.035c21.961 0 39.812 12.993 39.812 29.019l.007 4.798z" fill="#EBE9E9"/><path d="M339.332 332.704H182.507v-1.363a10.738 10.738 0 013.14-7.612 10.742 10.742 0 017.602-3.152h135.379a10.734 10.734 0 0110.735 10.751l-.031 1.376z" fill="#F5F4F4"/><path d="M430.902 22.201l-336.12.415c-4.153 0-7.53-2.38-7.53-5.325v-.113c0-2.946 3.358-5.338 7.53-5.345l336.12-.414c4.153 0 7.529 2.38 7.529 5.331v.107c-.038 2.945-3.401 5.338-7.529 5.345z" fill="#EFEEEE"/><path d="M92.197 17.329c18.916 41.824 37.829 83.648 56.74 125.471l15.147 33.497c1.255 2.713-2.547 4.848-3.765 2.148a1734285.09 1734285.09 0 01-56.74-125.472L88.432 19.477c-1.255-2.713 2.548-4.849 3.765-2.148z" fill="#D1D1D1"/><path d="M92.304 17.328L35.105 142.593l-15.265 33.44c-1.255 2.713 2.51 4.86 3.764 2.16l57.18-125.264L96.05 19.495c1.255-2.713-2.51-4.86-3.765-2.167h.019z" fill="#D1D1D1"/><path d="M90.127 21.247c-.08 46.986-.165 93.968-.257 140.945v12.736a2.1 2.1 0 002.089 2.26 2.091 2.091 0 001.538-.673 2.107 2.107 0 00.551-1.587l.258-140.945v-12.73a2.105 2.105 0 00-2.943-2.123 2.101 2.101 0 00-1.242 2.123l.006-.006zm343.084-3.918c18.919 41.824 37.833 83.648 56.74 125.471l15.147 33.497c1.255 2.713-2.548 4.848-3.765 2.148a1734285.09 1734285.09 0 01-56.74-125.472l-15.147-33.496c-1.255-2.713 2.547-4.849 3.765-2.148z" fill="#D1D1D1"/><path d="M433.317 17.329l-57.198 125.264-15.266 33.44c-1.255 2.713 2.51 4.861 3.765 2.161 19.062-41.757 38.128-83.512 57.198-125.265l15.266-33.434c1.255-2.713-2.51-4.86-3.765-2.166z" fill="#D1D1D1"/><path d="M431.14 21.247c-.084 46.986-.17 93.968-.258 140.945v12.736a2.103 2.103 0 001.25 2.084 2.095 2.095 0 002.929-2.084c.088-46.982.174-93.964.257-140.945v-12.73a2.11 2.11 0 00-.537-1.614 2.1 2.1 0 00-3.549.75 2.11 2.11 0 00-.099.864l.007-.006z" fill="#D1D1D1"/><path d="M426.962 11.337c5.519 1.565-.238 3.168-16.446 4.578-16.208 1.41-42.035 2.557-73.776 3.273-31.741.717-67.767.968-102.911.717-35.144-.25-67.602-.99-92.719-2.113-25.116-1.122-41.602-2.57-47.093-4.135-5.49-1.565.295-3.168 16.528-4.578 16.234-1.41 42.081-2.554 73.835-3.27 31.754-.716 67.785-.966 102.924-.713 35.083.252 67.475.992 92.554 2.113 25.08 1.12 41.564 2.566 47.104 4.128z" fill="#EFEEEE"/><path d="M293.595 8.45c1.097 2.086-.047 4.223-3.27 6.104-3.222 1.88-8.357 3.408-14.667 4.364-6.311.956-13.473 1.29-20.461.956-6.987-.334-13.44-1.32-18.433-2.817-4.994-1.497-8.271-3.427-9.363-5.514-1.092-2.087.059-4.224 3.286-6.104 3.228-1.88 8.366-3.406 14.679-4.36C251.68.124 258.843-.21 265.829.127c6.975.338 13.415 1.324 18.401 2.818 4.986 1.495 8.263 3.421 9.365 5.504z" fill="#EFEEEE"/><path d="M351.529 179.016H521.65l-.144.521c-4.342 15.311-14.683 25.283-26.14 25.195l-118.099-.892c-11.181-.069-21.258-9.74-25.662-24.56l-.076-.264z" fill="#F5F4F4"/><path d="M523.802 183.136H349.371c-1.926 0-3.495-1.828-3.495-4.076v-.082c0-2.254 1.569-4.082 3.495-4.082h174.431c1.933 0 3.495 1.828 3.495 4.082v.082c0 2.248-1.562 4.076-3.495 4.076z" fill="#EBEBEB"/><path d="M6.35 178.313h170.12l-.15.515c-4.336 15.317-14.683 25.283-26.134 25.201l-118.098-.885c-11.181-.082-21.265-9.734-25.663-24.574l-.075-.257z" fill="#F5F4F4"/><path d="M178.623 182.42H4.191c-1.932 0-3.495-1.821-3.495-4.076v-.081c0-2.249 1.563-4.076 3.495-4.076h174.432c1.926 0 3.494 1.827 3.494 4.076v.081c0 2.261-1.568 4.076-3.494 4.076z" fill="#EBEBEB"/><path d="M175.052 182.552s-5.91 17.998-21.804 21.351l-101.804-.76s78.639-1.256 92.863-7.535c14.224-6.28 23.216-12.767 23.216-12.767l7.529-.289zm345.513.835s-5.904 18.004-21.804 21.351l-101.804-.734s78.645-1.256 92.863-7.536c14.218-6.28 23.215-12.767 23.215-12.767l7.53-.314z" fill="#272525" opacity=".03"/><path d="M102.884 17.985c.011-5.903-4.747-10.698-10.628-10.71-5.881-.01-10.658 4.765-10.67 10.668-.01 5.903 4.748 10.698 10.629 10.71 5.88.01 10.657-4.766 10.669-10.668zm341.271-.044c.01-5.903-4.89-10.697-10.945-10.707-6.055-.01-10.972 4.766-10.982 10.669-.011 5.903 4.89 10.697 10.945 10.707 6.055.011 10.972-4.766 10.982-10.669z" fill="#EFEEEE"/></svg>