<svg width="61" height="54" viewBox="0 0 61 54" fill="none" xmlns="http://www.w3.org/2000/svg">
<path d="M55.9492 49.1073H17.2801C9.90682 49.1073 3.71911 43.2654 3.54047 35.8364C3.45926 32.4982 4.57987 29.4218 6.48003 27.0164C8.94862 23.9073 12.7652 21.8945 17.0202 21.8945H21.7625L0 0H7.19462L12.0506 4.89273L17.1177 9.99818L33.9917 27H17.0365C16.8741 27 16.6954 27 16.5168 27.0164C12.148 27.2782 8.67252 30.9109 8.59132 35.3618C8.51012 40.1073 12.5053 44.0018 17.2151 44.0018H50.8821L55.9492 49.1073Z" fill="url(#paint0_linear_965_550)"/>
<path d="M61.0002 54.0001H53.8218L48.9659 49.1074L43.8988 44.0019L27.0247 27.0164H43.98C44.1424 27.0164 44.321 27.0164 44.4997 27.0001C48.8684 26.7383 52.3439 23.1055 52.4251 18.6546C52.5063 13.9092 48.5111 10.0146 43.8013 10.0146H17.1179L12.0508 4.90918H43.7364C51.1096 4.90918 57.2973 10.751 57.476 18.1801C57.5572 21.5183 56.4366 24.5946 54.5364 27.0001C52.0678 30.1092 48.2513 32.1219 43.9962 32.1219H39.2539L61.0002 54.0001Z" fill="#FCF4ED"/>
<defs>
<linearGradient id="paint0_linear_965_550" x1="0" y1="0" x2="57.9333" y2="2.46446" gradientUnits="userSpaceOnUse">
<stop stop-color="#D1B180"/>
<stop offset="1" stop-color="#B8996A"/>
</linearGradient>
</defs>
</svg>
