<svg width="63" height="56" viewBox="0 0 63 56" fill="none" xmlns="http://www.w3.org/2000/svg">
<path d="M62.8999 55.4493H55.4812L50.4664 50.4345L45.2128 45.1969L27.7326 27.7167H45.2924C45.4675 27.7167 45.6585 27.7008 45.8337 27.7008C50.3549 27.4301 53.9528 23.7049 54.0324 19.1358C54.112 14.2484 49.9888 10.2525 45.1013 10.2525H17.6871L12.4335 5.0148H45.0217C52.6474 5.0148 59.0632 11.0166 59.2542 18.6423C59.3338 22.0651 58.1716 25.2332 56.1976 27.7008C53.6344 30.9007 49.6863 32.9544 45.2765 32.9544H40.3731L62.8999 55.4493Z" fill="#382B23"/>
<path d="M50.4664 50.4345H17.8782C10.2525 50.4345 3.83672 44.4327 3.64568 36.807C3.56608 33.3842 4.72823 30.2161 6.70231 27.7485C9.26543 24.5486 13.2136 22.4949 17.6234 22.4949H22.5268L0 0H7.41871L12.4335 5.0148L17.6871 10.2525L35.1673 27.7167H17.6075C17.4324 27.7167 17.2413 27.7326 17.0662 27.7326C12.5449 28.0033 8.94703 31.7285 8.86743 36.2976C8.78783 41.185 12.9111 45.1809 17.7986 45.1809H45.2128L50.4664 50.4345Z" fill="#B8996A"/>
</svg>
