<svg width="438" height="420" viewBox="0 0 438 420" fill="none" xmlns="http://www.w3.org/2000/svg">
<path d="M33.3535 416.866L337.94 3.13433H404.647L100.06 416.866H33.3535ZM338.569 420C307.103 420 282.351 412.478 264.31 397.433C246.69 382.388 237.879 361.075 237.879 333.493C237.879 305.91 246.69 284.597 264.31 269.552C282.351 254.507 307.103 246.985 338.569 246.985C369.195 246.985 393.319 254.507 410.94 269.552C428.98 284.597 438 305.91 438 333.493C438 361.075 428.98 382.388 410.94 397.433C393.319 412.478 369.195 420 338.569 420ZM337.94 394.925C371.083 394.925 387.655 374.448 387.655 333.493C387.655 292.537 370.874 272.06 337.31 272.06C304.586 272.06 288.224 292.537 288.224 333.493C288.224 374.448 304.796 394.925 337.94 394.925ZM100.69 173.015C69.2241 173.015 44.4713 165.493 26.431 150.448C8.81034 135.403 0 114.09 0 86.5075C0 58.9254 8.81034 37.6119 26.431 22.5672C44.4713 7.52239 69.2241 0 100.69 0C131.316 0 155.44 7.52239 173.06 22.5672C191.101 37.6119 200.121 58.9254 200.121 86.5075C200.121 114.09 191.101 135.403 173.06 150.448C155.44 165.493 131.316 173.015 100.69 173.015ZM100.06 147.94C133.204 147.94 149.776 127.463 149.776 86.5075C149.776 45.5522 132.994 25.0746 99.431 25.0746C66.7069 25.0746 50.3448 45.5522 50.3448 86.5075C50.3448 127.463 66.9167 147.94 100.06 147.94Z" fill="#F5F4F4"/>
</svg>
