<svg width="438" height="420" fill="none" xmlns="http://www.w3.org/2000/svg"><path d="M33.353 416.866L337.94 3.134h66.707L100.06 416.866H33.353zM338.57 420c-31.466 0-56.218-7.522-74.259-22.567-17.62-15.045-26.431-36.358-26.431-63.94 0-27.583 8.811-48.896 26.431-63.941 18.041-15.045 42.793-22.567 74.259-22.567 30.626 0 54.75 7.522 72.371 22.567C428.98 284.597 438 305.91 438 333.493c0 27.582-9.02 48.895-27.06 63.94C393.319 412.478 369.195 420 338.569 420zm-.629-25.075c33.143 0 49.715-20.477 49.715-61.432 0-40.956-16.781-61.433-50.345-61.433-32.724 0-49.086 20.477-49.086 61.433 0 40.955 16.572 61.432 49.716 61.432zm-237.25-221.91c-31.466 0-56.219-7.522-74.259-22.567C8.811 135.403 0 114.09 0 86.508c0-27.583 8.81-48.896 26.431-63.94C44.471 7.521 69.224 0 100.69 0c30.626 0 54.75 7.522 72.37 22.567 18.041 15.045 27.061 36.358 27.061 63.94 0 27.583-9.02 48.896-27.061 63.941-17.62 15.045-41.744 22.567-72.37 22.567zm-.63-25.075c33.144 0 49.716-20.477 49.716-61.433 0-40.955-16.782-61.432-50.345-61.432-32.724 0-49.086 20.477-49.086 61.432 0 40.956 16.572 61.433 49.715 61.433z" fill="#F5F4F4"/></svg>